<svg width="100" height="100" viewBox="0 0 100 100" fill="none" xmlns="http://www.w3.org/2000/svg">
<g clip-path="url(#clip0_1_10)">
<path d="M97.7207 1.49332e-06H88.4609C88.1435 -0.000356765 87.8294 0.06375 87.5375 0.188435C87.2457 0.313119 86.9822 0.495784 86.763 0.725351C86.5439 0.954919 86.3736 1.22661 86.2626 1.52394C86.1516 1.82127 86.1021 2.13806 86.1172 2.45508L86.8984 18.6191C82.3561 13.2666 76.7022 8.96793 70.3299 6.0223C63.9577 3.07666 57.0201 1.55477 50 1.5625C23.3086 1.5625 1.54297 23.3457 1.5625 50.0371C1.58203 76.7715 23.2617 98.4375 50 98.4375C61.9942 98.4544 73.565 94.0045 82.457 85.9551C82.6946 85.7425 82.8862 85.4837 83.0203 85.1945C83.1544 84.9053 83.2281 84.5918 83.2369 84.2731C83.2457 83.9545 83.1893 83.6374 83.0714 83.3412C82.9534 83.0451 82.7763 82.7761 82.5508 82.5508L75.9101 75.9102C75.4899 75.49 74.9257 75.2452 74.3317 75.2252C73.7378 75.2053 73.1584 75.4117 72.7109 75.8027C67.4638 80.4192 60.9341 83.3266 53.9924 84.1374C47.0508 84.9482 40.0268 83.6238 33.857 80.3408C27.6873 77.0578 22.6647 71.9721 19.459 65.7618C16.2533 59.5515 15.0168 52.5116 15.9142 45.5806C16.8116 38.6495 19.8004 32.1567 24.482 26.9676C29.1637 21.7786 35.3158 18.1398 42.1183 16.5364C48.9208 14.933 56.0504 15.4412 62.5566 17.9931C69.0629 20.5451 74.6368 25.0197 78.5351 30.8203L58.7051 29.8691C58.388 29.8541 58.0713 29.9035 57.7739 30.0146C57.4766 30.1256 57.2049 30.2958 56.9753 30.515C56.7458 30.7341 56.5631 30.9976 56.4384 31.2895C56.3137 31.5814 56.2496 31.8955 56.25 32.2129V41.4727C56.25 42.0943 56.4969 42.6904 56.9365 43.1299C57.376 43.5695 57.9721 43.8164 58.5937 43.8164H97.7207C98.3423 43.8164 98.9384 43.5695 99.378 43.1299C99.8175 42.6904 100.064 42.0943 100.064 41.4727V2.34375C100.064 1.72215 99.8175 1.12601 99.378 0.68647C98.9384 0.246932 98.3423 1.49332e-06 97.7207 1.49332e-06V1.49332e-06Z" fill="#233640"/>
</g>
<defs>
<clipPath id="clip0_1_10">
<rect width="100" height="100" fill="white"/>
</clipPath>
</defs>
</svg>
